# xmcd
# Copyright (C) 1995-1998 Ti Kan
#
# Track frame offsets:
#       150
#       13187
#       31171
#       57041
#       77689
#       91510
#       107859
#       124975
#       141427
#       154966
#       173039
#       188010
#       202527
#       217247
#       233576
#       262158
#       273378
#       284850
#
# Disc length: 3980 seconds
#
# Revision: 17
# Processed by: cddbd v1.5.1PL0 Copyright (c) Steve Scherf et al.
# Submitted via: CD-Transfer v1.0
#
DISCID=020f8a12
DTITLE=Pier - Euro Express 584
DYEAR=04
DGENRE=
TTITLE0=Echame A Mi La Culpa
TTITLE1=He Vuelto Por Ti
TTITLE2=Principio De Incertidumbre
TTITLE3=Dias De Colores
TTITLE4=No La Sueltas
TTITLE5=Te Ensenare La Luna
TTITLE6=Esos Dias
TTITLE7=Eva Y Maria
TTITLE8=Sobre Todo
TTITLE9=Es Tu Amor
TTITLE10=Whisky Barato
TTITLE11=Nada Me Alcanza
TTITLE12=No Me Diverte
TTITLE13=Mala Leche
TTITLE14=Como Un Cuento
TTITLE15=No Tenes Un Buen Look
TTITLE16=Buscando Un Amor
TTITLE17=La Ultima Risa
EXTD=
EXTT0=
EXTT1=
EXTT2=
EXTT3=
EXTT4=
EXTT5=
EXTT6=
EXTT7=
EXTT8=
EXTT9=
EXTT10=
EXTT11=
EXTT12=
EXTT13=
EXTT14=
EXTT15=
EXTT16=
EXTT17=
PLAYORDER=
